<svg width="22" height="22" viewBox="0 0 25 24" fill="none" xmlns="http://www.w3.org/2000/svg">
<path d="M8 11L9 16" stroke="black" stroke-width="1.5" stroke-linecap="round" stroke-linejoin="round"/>
<path d="M3.53919 4.2939C3.51449 4.10866 3.5791 3.92338 3.73133 3.81499C4.4272 3.31953 6.8142 2 12.5 2C18.1858 2 20.5728 3.31952 21.2687 3.81499C21.4209 3.92338 21.4855 4.10866 21.4608 4.2939L19.7616 17.0378C19.5968 18.2744 18.8644 19.3632 17.7813 19.9821L17.4614 20.1649C14.3871 21.9217 10.6129 21.9217 7.53861 20.1649L7.21873 19.9821C6.1356 19.3632 5.40325 18.2744 5.23838 17.0378L3.53919 4.2939Z" stroke="black" stroke-width="1.5"/>
<path d="M3.5 5C6.07143 7.66666 18.9286 7.66662 21.5 5" stroke="black" stroke-width="1.5"/>
</svg>
