<svg width="120" height="33" viewBox="0 0 137 42" fill="none" xmlns="http://www.w3.org/2000/svg">
<path d="M13.7347 0.000133514C9.25635 0.000133514 6.86775 0.299042 5.8224 0.299042C4.08069 0.299042 2.53813 0.249016 0.994929 0.249016C0.149287 0.249016 0 0.299122 0 0.647346C0 1.24406 0.198804 1.29458 2.4388 1.29458C3.83153 1.29458 4.62866 1.74249 4.62866 5.67375V28.5657C4.62866 29.3121 4.52848 29.4118 2.28936 29.4118C1.19438 29.4118 0.895512 29.5107 0.895512 30.0089C0.895512 30.5064 1.24394 30.5561 1.74219 30.5561C3.33423 30.5561 4.42919 30.3572 6.51908 30.3572C8.70862 30.3572 10.799 30.8544 12.8893 30.8544C19.8069 30.8544 24.4353 28.2176 24.4353 22.6437C24.4353 18.3142 21.4983 16.6218 19.1594 15.4268C18.1641 14.9293 17.2184 14.6806 17.2184 14.5814C17.2184 14.4325 18.3134 13.8847 19.2595 13.2376C20.8523 12.143 22.9921 10.4004 22.9921 6.86737C22.9921 3.33392 20.2052 0.000133514 13.7347 0.000133514ZM99.0032 0.057045C98.7435 0.057045 97.0986 0.792927 93.7224 1.0094C92.9868 1.05262 92.6399 1.00893 92.6399 1.5284C92.6399 2.00505 93.0732 2.09183 93.8524 2.09183C95.7998 2.09183 96.0598 2.09162 96.0598 4.8182V28.6683C96.0598 29.4475 95.3236 29.4043 93.5491 29.4043C92.5098 29.4043 92.4667 29.6647 92.4667 29.9677C92.4667 30.3139 92.553 30.4005 93.5491 30.4005C94.155 30.4005 96.4496 30.3142 97.9208 30.3142C98.7008 30.3142 99.6529 30.4005 100.302 30.4005C101.86 30.4005 102.163 30.4003 102.163 29.9677C102.163 29.6207 102.249 29.3612 100.085 29.3612C99.3062 29.3612 99.0032 28.885 99.0032 25.2928C99.0032 24.0369 99.2195 20.618 99.2195 4.12573C99.2195 2.82745 99.4359 1.26838 99.4359 0.748913C99.4359 0.272663 99.2193 0.057045 99.0032 0.057045ZM63.0669 0.100185C62.6771 0.100185 60.1229 1.05198 57.0068 1.05198C56.5306 1.05198 56.444 1.22528 56.444 1.65791C56.444 1.96167 56.6172 2.0919 58.3913 2.0919C59.5599 2.0919 59.9065 2.48153 59.9065 5.55436C59.9065 14.6879 59.7764 27.5002 59.7764 28.7553C59.7764 29.4044 59.387 29.4044 57.9154 29.4044C56.8765 29.4044 56.6604 29.6208 56.6604 29.9678C56.6604 30.3572 56.9201 30.4005 57.9154 30.4005C58.5213 30.4005 60.1231 30.3142 61.5955 30.3142C62.9806 30.3142 64.971 30.4005 65.6201 30.4005C66.5722 30.4005 66.7889 30.4004 66.7889 29.9678C66.7889 29.6208 66.6158 29.4044 65.6201 29.4044C62.9367 29.4044 63.0237 29.4047 63.0237 27.3708V24.6438C63.0237 24.254 63.6295 23.9506 64.3219 23.5176C65.0575 23.0414 65.6631 22.609 65.8364 22.609C66.0962 22.609 67.9151 25.3365 69.7329 27.414C71.5506 29.4915 71.9404 30.5737 72.72 30.5737C73.326 30.5737 74.6243 30.5306 75.1438 30.5306C75.5332 30.5306 76.0957 30.5737 76.6152 30.5737C77.5673 30.5737 77.8703 30.4871 77.8703 30.1841C77.8703 29.8379 77.5243 29.6207 76.4858 29.6207C75.0142 29.6207 73.629 27.5001 72.1566 25.7255C69.1271 22.0892 68.3484 21.2672 68.3484 20.8774C68.3484 20.5744 71.0318 18.6704 73.1965 16.5489C74.538 15.2506 76.0093 13.3897 76.0093 12.9995C76.0093 12.8695 75.8364 12.8263 75.4903 12.8263C74.9712 12.8263 72.4598 12.9558 71.8971 12.9558C71.3776 12.9558 70.5557 12.8263 70.1231 12.8263C69.5604 12.8263 69.3439 12.9127 69.3439 13.2597C69.3439 13.6495 69.5602 13.7355 70.2093 13.7355C72.1135 13.7355 72.2435 13.8223 72.2435 14.5147C72.2435 15.4236 71.8538 16.1596 70.1662 17.7608C68.781 19.0599 64.2785 23.0417 63.1963 23.0417C63.0666 23.0417 63.0237 22.9117 63.0237 22.7384C63.0237 15.6831 63.2826 10.8354 63.2826 4.25597C63.2826 2.87085 63.3695 1.05189 63.3695 0.489597C63.3695 0.229862 63.283 0.100185 63.0669 0.100185ZM12.2411 1.19453C16.7699 1.19453 18.8602 5.97231 18.8602 8.46081C18.8602 12.3921 17.2179 13.3377 15.7748 14.4327C15.7748 14.4327 13.6842 14.1337 10.649 14.1337C9.45397 14.1337 8.80741 14.2329 8.80741 13.4365V2.63806C8.80741 1.64274 8.95703 1.19453 12.2411 1.19453ZM34.0653 12.3932C30.1265 12.3932 26.0139 16.0295 26.0139 22.1327C26.0139 29.3613 31.2951 31.0934 34.8441 31.0934C38.3504 31.0934 42.0297 28.3655 42.0297 28.1493C42.0297 28.0625 41.8998 27.8029 41.6833 27.8029C41.424 27.8029 39.8657 28.8422 37.009 28.8422C33.7189 28.8422 29.0868 27.2404 29.0868 21.2669C29.0868 20.2716 29.2172 20.0551 29.9103 20.0119C34.8441 19.7089 39.1728 18.7572 40.2982 18.4967C41.4676 18.2369 42.0735 18.064 42.0735 17.8907C42.0735 17.5446 41.3804 16.5054 40.644 15.6402C39.086 13.822 36.3165 12.3932 34.0653 12.3932ZM84.5373 12.3932C80.5988 12.3932 76.4859 16.0295 76.4859 22.1327C76.4859 29.3613 81.7666 31.0934 85.3161 31.0934C88.8219 31.0934 92.5017 28.3655 92.5017 28.1493C92.5017 28.0625 92.3714 27.8029 92.1552 27.8029C91.8955 27.8029 90.337 28.8422 87.4803 28.8422C84.1906 28.8422 79.5593 27.2404 79.5593 21.2669C79.5593 20.2716 79.6893 20.0551 80.3816 20.0119C85.3162 19.7089 89.644 18.7572 90.7702 18.4967C91.9388 18.2369 92.5449 18.064 92.5449 17.8907C92.5449 17.5446 91.8526 16.5054 91.1166 15.6402C89.5578 13.822 86.7884 12.3932 84.5373 12.3932ZM109.504 12.3932C105.565 12.3932 101.452 16.0295 101.452 22.1327C101.452 29.3613 106.733 31.0934 110.283 31.0934C113.789 31.0934 117.468 28.3655 117.468 28.1493C117.468 28.0625 117.338 27.8029 117.122 27.8029C116.862 27.8029 115.305 28.8422 112.447 28.8422C109.158 28.8422 104.526 27.2404 104.526 21.2669C104.526 20.2716 104.656 20.0551 105.348 20.0119C110.283 19.7089 114.612 18.7572 115.737 18.4967C116.906 18.2369 117.512 18.064 117.512 17.8907C117.512 17.5446 116.819 16.5054 116.083 15.6402C114.525 13.822 111.754 12.3932 109.504 12.3932ZM49.1284 12.6959C48.4352 12.6959 47.6127 12.9122 46.9204 12.9122C46.0547 12.9122 45.2321 12.8253 43.7606 12.8253C43.0242 12.8253 43.0677 12.9558 43.0677 13.4756C43.0677 13.9519 43.0675 13.9084 43.8475 13.9084C46.2711 13.9084 46.1843 13.9949 46.1843 16.9381V28.7987C46.1843 29.4046 46.0547 29.4478 44.2802 29.4478C43.2408 29.4478 43.1977 29.534 43.1977 29.9674C43.1977 30.4005 43.284 30.4002 44.2802 30.4002C44.8861 30.4002 46.358 30.1838 47.8295 30.1838C49.2151 30.1838 52.1149 30.4002 52.7208 30.4002C53.8462 30.4002 53.8896 30.4437 53.8896 29.9674C53.8896 29.5772 53.8462 29.4478 52.7208 29.4478C49.518 29.4478 49.3884 29.4474 49.3884 27.3267V18.4092C49.3884 16.5915 50.3401 15.5527 52.8502 15.5527C55.015 15.5527 55.5348 17.3274 56.1407 17.3274C56.4004 17.3274 57.0925 15.4229 57.0925 14.9899C57.0925 13.8649 55.1017 12.9119 54.3217 12.9119C52.2874 12.9119 50.2539 15.1631 49.6048 15.1631C49.4315 15.1631 49.3884 14.8603 49.3884 14.4709C49.3884 14.3408 49.4747 13.3885 49.4747 13.172C49.4747 12.8251 49.3017 12.6959 49.1284 12.6959ZM135.558 12.739C134.952 12.739 133.783 12.9122 133.134 12.9122C131.964 12.9122 131.185 12.8259 130.017 12.8259C129.238 12.8259 129.108 12.8256 129.108 13.3887C129.108 13.8217 129.281 13.8221 130.623 13.8221C132.094 13.8221 132.094 14.0815 132.094 15.3798C132.094 15.9857 130.536 20.488 129.497 23.6041C128.805 25.6391 128.545 26.2448 128.242 26.2448C128.069 26.2448 127.549 25.5091 127.203 24.6002C124.606 17.9335 123.481 16.4183 123.481 15.1632C123.481 14.1679 123.74 13.9082 124.779 13.9082C125.688 13.9082 125.861 13.8649 125.861 13.4755C125.861 12.9984 125.688 12.8257 124.779 12.8257C123.394 12.8257 121.878 12.9552 120.667 12.9552C119.628 12.9552 119.325 12.8689 118.113 12.8689C117.334 12.8689 117.205 13.0857 117.205 13.4755C117.205 13.8649 117.248 13.9082 118.113 13.9082C118.892 13.9082 119.196 14.125 120.278 16.7215C122.659 22.3488 126.121 30.3566 126.121 30.8329C126.121 32.1312 122.399 37.2386 120.84 39.1861C119.369 41.0478 117.334 41.3075 117.334 41.5673C117.334 41.7838 117.767 42 118.503 42C119.455 42 119.758 41.6539 121.056 41.481C122.009 41.3509 122.528 41.3075 123.005 40.3554C124.389 37.4983 126.338 33.992 129.065 27.3694C132.484 19.0595 134.389 13.8648 135.341 13.8648C135.861 13.8648 136.466 13.6483 136.466 13.2588C136.466 12.7822 136.25 12.739 135.558 12.739ZM33.6323 13.3024C35.6237 13.3024 38.1771 16.505 38.1771 17.5871C38.1771 17.8469 38.1344 17.9334 37.6581 18.0199C34.4116 18.5393 32.0742 19.1029 29.8234 19.1029C29.3035 19.1029 29.3037 19.0593 29.3037 18.8428C29.3037 18.2361 30.343 13.3024 33.6323 13.3024ZM84.1035 13.3024C86.0953 13.3024 88.6489 16.505 88.6489 17.5871C88.6489 17.8469 88.6056 17.9334 88.1293 18.0199C84.8828 18.5393 82.5456 19.1029 80.2952 19.1029C79.7757 19.1029 79.7756 19.0593 79.7756 18.8428C79.7756 18.2361 80.8141 13.3024 84.1035 13.3024ZM109.07 13.3024C111.061 13.3024 113.616 16.505 113.616 17.5871C113.616 17.8469 113.572 17.9334 113.096 18.0199C109.849 18.5393 107.512 19.1029 105.261 19.1029C104.742 19.1029 104.742 19.0593 104.742 18.8428C104.742 18.2361 105.78 13.3024 109.07 13.3024ZM10.6027 15.0784C16.0267 15.0784 19.709 18.5621 19.709 23.0413C19.709 27.3707 16.9226 29.9593 13.1406 29.9593C11.5478 29.9593 9.95592 29.6107 9.40804 29.0132C8.96061 28.5153 8.81085 25.7288 8.81085 25.2806V16.3719C8.81085 15.2774 9.2091 15.0784 10.6027 15.0784ZM35.2803 35.3938C34.2578 35.3938 33.405 36.0107 33.405 37.0328C33.405 38.9754 35.9645 38.6291 35.9645 39.7105C35.9645 40.1411 35.6348 40.5127 34.9677 40.5127C34.5199 40.5127 33.9541 40.3022 33.4807 39.9812L33.0586 40.7247C33.5316 41.0537 34.1733 41.3669 34.9678 41.3669C36.0743 41.3669 36.9951 40.6564 36.9951 39.6767C36.9951 37.708 34.4356 38.3001 34.4356 36.9903C34.4356 36.5597 34.7229 36.2474 35.2804 36.2474C35.7787 36.2474 36.167 36.4164 36.598 36.6357L36.9613 35.9091C36.4718 35.6054 35.8883 35.3938 35.2803 35.3938ZM55.6854 35.3938C53.9453 35.3938 53.1685 36.6359 53.1685 38.376C53.1685 40.0317 53.9369 41.3669 55.6854 41.3669C57.4339 41.3669 58.203 40.0317 58.203 38.376C58.203 36.6359 57.4255 35.3938 55.6854 35.3938ZM69.2501 35.3938C67.51 35.3938 66.6562 36.6442 66.6562 38.3847C66.6562 40.1585 67.4342 41.3669 69.2163 41.3669C69.9935 41.3669 70.7201 41.0453 71.3112 40.5046L70.7959 39.8462C70.3229 40.2772 69.7824 40.5128 69.2669 40.5128C68.194 40.5128 67.6867 39.7447 67.6867 38.376C67.6867 37.0161 68.2279 36.2474 69.2501 36.2474C69.7991 36.2474 70.2046 36.4419 70.6521 36.8133L71.1761 36.1374C70.5678 35.6387 69.9681 35.3938 69.2501 35.3938ZM91.2432 35.3938C89.5027 35.3938 88.7263 36.6359 88.7263 38.376C88.7263 40.0317 89.4947 41.3669 91.2432 41.3669C92.9917 41.3669 93.7607 40.0317 93.7607 38.376C93.7607 36.6359 92.9833 35.3938 91.2432 35.3938ZM10.409 35.4782L9.43718 35.5801V41.2738H10.4427V37.388H10.4595L12.9008 41.2738H13.7963V35.487H12.7908V39.289H12.7659L10.409 35.4782ZM23.3053 35.4782V41.2737H26.8196L26.8959 40.4202H24.3108V38.7818H26.4819V37.9282H24.3108V36.3318H26.7521V35.4782H23.3053ZM59.4962 35.4782V41.2737H60.5011V38.7818H62.6304V37.9282H60.5011V36.3318H62.8748V35.4782H59.4962ZM75.0371 35.4782L73.8634 35.5714L71.8273 41.2737H72.7653L73.2462 39.8793H75.578L76.0595 41.2737H77.0907L75.0371 35.4782ZM84.699 35.4782V41.2737H85.7039V38.7818H87.8332V37.9282H85.7039V36.3318H88.0783V35.4782H84.699ZM100.527 35.4782L99.5554 35.5801V41.2738H100.56V37.388H100.578L103.019 41.2738H103.914V35.487H102.909V39.289H102.883L100.527 35.4782ZM110.214 35.4782L109.04 35.5714L107.003 41.2737H107.941L108.423 39.8793H110.754L111.236 41.2737H112.267L110.214 35.4782ZM3.75829 35.487V39.2627C3.75829 40.5638 4.4761 41.3669 5.89563 41.3669C7.30597 41.3669 8.02428 40.564 8.02428 39.2545V35.487H7.01878V39.3221C7.01878 40.0405 6.71534 40.5127 5.89573 40.5127C5.0677 40.5127 4.7633 40.0401 4.7633 39.3133V35.487H3.75829ZM15.2283 35.487V41.2737H16.2332V35.487H15.2283ZM17.2212 35.487L19.2147 41.2737H20.3209L22.3232 35.487H21.3345L20.2283 38.7224C20.2283 38.7224 20.1186 39.0514 19.8312 40.04H19.7806C19.5016 39.0514 19.3922 38.7137 19.3922 38.7137L18.2854 35.487H17.2212ZM28.2261 35.487V41.2737H29.231V38.9588H29.7125C30.0759 38.9588 30.2872 39.2973 30.456 39.6435L31.2583 41.2737H32.3651L31.2583 39.187C31.1911 39.0518 31.0895 38.8994 30.9038 38.7893V38.7731C31.6638 38.4857 31.9937 37.8946 31.9937 37.2023C31.9937 36.1969 31.3598 35.487 30.084 35.487H28.2261ZM38.1921 35.487V41.2737H39.197V35.487H38.1921ZM40.3539 35.487V36.3487H41.8834V41.2737H42.8883V36.3399H44.3497L44.426 35.487H40.3539ZM45.0839 35.487L46.9086 38.798V41.2737H47.9135V38.798L49.7389 35.487H48.6314L47.8123 37.1347C47.8123 37.1347 47.7109 37.3453 47.4239 37.9876H47.399C47.0944 37.3453 46.9844 37.1347 46.9844 37.1347L46.2158 35.487H45.0839ZM77.905 35.487V41.2737H81.3262L81.4024 40.4202H78.9105V35.487H77.905ZM82.3811 35.487V41.2737H83.386V35.487H82.3811ZM94.6275 35.487V41.2737H95.633V38.9588H96.1145C96.4775 38.9588 96.6891 39.2973 96.858 39.6435L97.6604 41.2737H98.7672L97.6604 39.187C97.5931 39.0518 97.4915 38.8994 97.3058 38.7893V38.7731C98.0658 38.4857 98.3957 37.8946 98.3957 37.2023C98.3957 36.1969 97.7618 35.487 96.486 35.487H94.6275ZM105.177 35.487V41.2737H106.182V35.487H105.177ZM55.684 36.2474C56.6809 36.2474 57.1623 37.1173 57.1623 38.376C57.1623 39.6346 56.6729 40.5127 55.684 40.5127C54.6874 40.5127 54.1976 39.6342 54.1976 38.3672C54.1976 37.1085 54.6875 36.2474 55.684 36.2474ZM91.2409 36.2474C92.2379 36.2474 92.7192 37.1173 92.7192 38.376C92.7192 39.6346 92.2295 40.5127 91.2409 40.5127C90.244 40.5127 89.7546 39.6342 89.7546 38.3672C89.7546 37.1085 90.244 36.2474 91.2409 36.2474ZM29.2309 36.3487H30.0589C30.7433 36.3487 30.9631 36.6697 30.9631 37.2104C30.9631 37.7595 30.6841 38.114 30.0758 38.114H29.2309V36.3487ZM95.6328 36.3487H96.4608C97.1451 36.3487 97.365 36.6697 97.365 37.2104C97.365 37.7595 97.086 38.114 96.4777 38.114H95.6328V36.3487ZM74.3913 36.5006H74.4082C74.8052 37.7 74.8728 37.8857 74.8728 37.8857L75.3206 39.1614H73.4871L73.9349 37.8857C73.9349 37.8857 74.0027 37.7001 74.3913 36.5006ZM109.568 36.5006H109.585C109.982 37.7 110.05 37.8857 110.05 37.8857L110.497 39.1614H108.664L109.112 37.8857C109.112 37.8857 109.179 37.7001 109.568 36.5006Z" fill="#00326F"/>
</svg>
