<svg width="20" height="20" viewBox="0 0 16 16" fill="none" xmlns="http://www.w3.org/2000/svg">
<path d="M4 12.2667V3.73337C4 3.51246 4.17909 3.33337 4.4 3.33337H6.26667C6.48758 3.33337 6.66667 3.51246 6.66667 3.73337V12.2667C6.66667 12.4876 6.48758 12.6667 6.26667 12.6667H4.4C4.17909 12.6667 4 12.4876 4 12.2667Z" stroke="black"/>
<path d="M9.33333 12.2667V3.73337C9.33333 3.51246 9.51241 3.33337 9.73333 3.33337H11.6C11.8209 3.33337 12 3.51246 12 3.73337V12.2667C12 12.4876 11.8209 12.6667 11.6 12.6667H9.73333C9.51241 12.6667 9.33333 12.4876 9.33333 12.2667Z" stroke="black"/>
</svg>
